<svg width="21" height="20" viewBox="0 0 21 20" fill="none" xmlns="http://www.w3.org/2000/svg">
<path d="M17.3824 3.125H11.1324V1.875C11.1324 1.70924 11.0666 1.55027 10.9494 1.43306C10.8322 1.31585 10.6732 1.25 10.5074 1.25C10.3417 1.25 10.1827 1.31585 10.0655 1.43306C9.94829 1.55027 9.88245 1.70924 9.88245 1.875V3.125H3.63245C3.30093 3.125 2.98298 3.2567 2.74856 3.49112C2.51414 3.72554 2.38245 4.04348 2.38245 4.375V13.75C2.38245 14.0815 2.51414 14.3995 2.74856 14.6339C2.98298 14.8683 3.30093 15 3.63245 15H6.70745L5.01917 17.1094C4.91556 17.2389 4.86765 17.4042 4.88597 17.5691C4.90428 17.7339 4.98732 17.8847 5.11682 17.9883C5.24632 18.0919 5.41167 18.1398 5.5765 18.1215C5.74133 18.1032 5.89213 18.0201 5.99573 17.8906L8.30745 15H12.7074L15.0192 17.8906C15.0705 17.9547 15.1339 18.0081 15.2058 18.0477C15.2778 18.0874 15.3568 18.1124 15.4384 18.1215C15.52 18.1306 15.6026 18.1235 15.6815 18.1006C15.7604 18.0777 15.8339 18.0396 15.8981 17.9883C15.9622 17.937 16.0156 17.8736 16.0552 17.8016C16.0948 17.7297 16.1199 17.6507 16.1289 17.5691C16.138 17.4874 16.1309 17.4048 16.108 17.326C16.0852 17.2471 16.047 17.1735 15.9957 17.1094L14.3074 15H17.3824C17.714 15 18.0319 14.8683 18.2663 14.6339C18.5007 14.3995 18.6324 14.0815 18.6324 13.75V4.375C18.6324 4.04348 18.5007 3.72554 18.2663 3.49112C18.0319 3.2567 17.714 3.125 17.3824 3.125ZM17.3824 13.75H3.63245V4.375H17.3824V13.75ZM8.63245 9.375V11.25C8.63245 11.4158 8.5666 11.5747 8.44939 11.6919C8.33218 11.8092 8.17321 11.875 8.00745 11.875C7.84169 11.875 7.68271 11.8092 7.5655 11.6919C7.44829 11.5747 7.38245 11.4158 7.38245 11.25V9.375C7.38245 9.20924 7.44829 9.05027 7.5655 8.93306C7.68271 8.81585 7.84169 8.75 8.00745 8.75C8.17321 8.75 8.33218 8.81585 8.44939 8.93306C8.5666 9.05027 8.63245 9.20924 8.63245 9.375ZM11.1324 8.125V11.25C11.1324 11.4158 11.0666 11.5747 10.9494 11.6919C10.8322 11.8092 10.6732 11.875 10.5074 11.875C10.3417 11.875 10.1827 11.8092 10.0655 11.6919C9.94829 11.5747 9.88245 11.4158 9.88245 11.25V8.125C9.88245 7.95924 9.94829 7.80027 10.0655 7.68306C10.1827 7.56585 10.3417 7.5 10.5074 7.5C10.6732 7.5 10.8322 7.56585 10.9494 7.68306C11.0666 7.80027 11.1324 7.95924 11.1324 8.125ZM13.6324 6.875V11.25C13.6324 11.4158 13.5666 11.5747 13.4494 11.6919C13.3322 11.8092 13.1732 11.875 13.0074 11.875C12.8417 11.875 12.6827 11.8092 12.5655 11.6919C12.4483 11.5747 12.3824 11.4158 12.3824 11.25V6.875C12.3824 6.70924 12.4483 6.55027 12.5655 6.43306C12.6827 6.31585 12.8417 6.25 13.0074 6.25C13.1732 6.25 13.3322 6.31585 13.4494 6.43306C13.5666 6.55027 13.6324 6.70924 13.6324 6.875Z" fill="#7E8986"/>
</svg>
