<svg width="18" height="14" viewBox="0 0 18 14" fill="none" xmlns="http://www.w3.org/2000/svg">
<path d="M17.0094 13.25C17.0094 13.4158 16.9436 13.5747 16.8263 13.6919C16.7091 13.8092 16.5502 13.875 16.3844 13.875H1.3844C1.21864 13.875 1.05967 13.8092 0.942458 13.6919C0.825247 13.5747 0.759399 13.4158 0.759399 13.25V0.75C0.759399 0.58424 0.825247 0.425269 0.942458 0.308058C1.05967 0.190848 1.21864 0.125 1.3844 0.125C1.55016 0.125 1.70913 0.190848 1.82634 0.308058C1.94355 0.425269 2.0094 0.58424 2.0094 0.75V8.12266L5.97268 4.65625C6.08053 4.56184 6.21755 4.50737 6.36078 4.50197C6.50401 4.49656 6.64474 4.54055 6.7594 4.62656L11.3539 8.07266L15.9727 4.03125C16.0332 3.9713 16.1054 3.92437 16.1848 3.89334C16.2641 3.86231 16.349 3.84784 16.4342 3.85081C16.5193 3.85378 16.603 3.87414 16.68 3.91062C16.757 3.94711 16.8257 3.99896 16.882 4.06298C16.9382 4.127 16.9807 4.20185 17.007 4.28292C17.0332 4.36399 17.0426 4.44956 17.0346 4.5344C17.0265 4.61923 17.0012 4.70152 16.9602 4.77622C16.9192 4.85091 16.8634 4.91643 16.7961 4.96875L11.7961 9.34375C11.6883 9.43816 11.5513 9.49263 11.408 9.49803C11.2648 9.50344 11.1241 9.45945 11.0094 9.37344L6.41487 5.92891L2.0094 9.78359V12.625H16.3844C16.5502 12.625 16.7091 12.6908 16.8263 12.8081C16.9436 12.9253 17.0094 13.0842 17.0094 13.25Z" fill="#031B15"/>
</svg>
