<svg width="15" height="16" viewBox="0 0 15 16" fill="none" xmlns="http://www.w3.org/2000/svg">
<path d="M13.7574 0.5H3.75745C3.42593 0.5 3.10798 0.631696 2.87356 0.866116C2.63914 1.10054 2.50745 1.41848 2.50745 1.75V3H1.25745C0.925926 3 0.607983 3.1317 0.373563 3.36612C0.139142 3.60054 0.00744629 3.91848 0.00744629 4.25V14.25C0.00744629 14.5815 0.139142 14.8995 0.373563 15.1339C0.607983 15.3683 0.925926 15.5 1.25745 15.5H11.2574C11.589 15.5 11.9069 15.3683 12.1413 15.1339C12.3757 14.8995 12.5074 14.5815 12.5074 14.25V13H13.7574C14.089 13 14.4069 12.8683 14.6413 12.6339C14.8757 12.3995 15.0074 12.0815 15.0074 11.75V1.75C15.0074 1.41848 14.8757 1.10054 14.6413 0.866116C14.4069 0.631696 14.089 0.5 13.7574 0.5ZM3.75745 1.75H13.7574V7.17031L12.4528 5.86562C12.2184 5.63138 11.9005 5.4998 11.5692 5.4998C11.2378 5.4998 10.92 5.63138 10.6856 5.86562L4.80198 11.75H3.75745V1.75ZM11.2574 14.25H1.25745V4.25H2.50745V11.75C2.50745 12.0815 2.63914 12.3995 2.87356 12.6339C3.10798 12.8683 3.42593 13 3.75745 13H11.2574V14.25ZM13.7574 11.75H6.56995L11.5699 6.75L13.7574 8.9375V11.75ZM6.88245 6.75C7.25329 6.75 7.6158 6.64003 7.92414 6.43401C8.23248 6.22798 8.47281 5.93514 8.61472 5.59253C8.75663 5.24992 8.79377 4.87292 8.72142 4.50921C8.64907 4.14549 8.4705 3.8114 8.20827 3.54917C7.94605 3.28695 7.61196 3.10837 7.24824 3.03603C6.88453 2.96368 6.50753 3.00081 6.16492 3.14273C5.8223 3.28464 5.52947 3.52496 5.32344 3.83331C5.11741 4.14165 5.00745 4.50416 5.00745 4.875C5.00745 5.37228 5.20499 5.84919 5.55662 6.20083C5.90825 6.55246 6.38517 6.75 6.88245 6.75ZM6.88245 4.25C7.00606 4.25 7.1269 4.28666 7.22968 4.35533C7.33246 4.42401 7.41257 4.52162 7.45987 4.63582C7.50718 4.75003 7.51955 4.87569 7.49544 4.99693C7.47132 5.11817 7.4118 5.22953 7.32439 5.31694C7.23698 5.40435 7.12562 5.46388 7.00438 5.48799C6.88314 5.51211 6.75747 5.49973 6.64327 5.45243C6.52907 5.40512 6.43145 5.32501 6.36278 5.22223C6.2941 5.11945 6.25745 4.99861 6.25745 4.875C6.25745 4.70924 6.32329 4.55027 6.4405 4.43306C6.55771 4.31585 6.71669 4.25 6.88245 4.25Z" fill="#7E8986"/>
</svg>
