<svg width="16" height="17" viewBox="0 0 16 17" fill="none" xmlns="http://www.w3.org/2000/svg">
<path d="M14.1344 1.5H12.2594V0.875C12.2594 0.70924 12.1936 0.550268 12.0763 0.433058C11.9591 0.315848 11.8002 0.25 11.6344 0.25C11.4686 0.25 11.3097 0.315848 11.1925 0.433058C11.0752 0.550268 11.0094 0.70924 11.0094 0.875V1.5H4.7594V0.875C4.7594 0.70924 4.69355 0.550268 4.57634 0.433058C4.45913 0.315848 4.30016 0.25 4.1344 0.25C3.96864 0.25 3.80967 0.315848 3.69246 0.433058C3.57525 0.550268 3.5094 0.70924 3.5094 0.875V1.5H1.6344C1.30288 1.5 0.984936 1.6317 0.750516 1.86612C0.516095 2.10054 0.384399 2.41848 0.384399 2.75V15.25C0.384399 15.5815 0.516095 15.8995 0.750516 16.1339C0.984936 16.3683 1.30288 16.5 1.6344 16.5H14.1344C14.4659 16.5 14.7839 16.3683 15.0183 16.1339C15.2527 15.8995 15.3844 15.5815 15.3844 15.25V2.75C15.3844 2.41848 15.2527 2.10054 15.0183 1.86612C14.7839 1.6317 14.4659 1.5 14.1344 1.5ZM3.5094 2.75V3.375C3.5094 3.54076 3.57525 3.69973 3.69246 3.81694C3.80967 3.93415 3.96864 4 4.1344 4C4.30016 4 4.45913 3.93415 4.57634 3.81694C4.69355 3.69973 4.7594 3.54076 4.7594 3.375V2.75H11.0094V3.375C11.0094 3.54076 11.0752 3.69973 11.1925 3.81694C11.3097 3.93415 11.4686 4 11.6344 4C11.8002 4 11.9591 3.93415 12.0763 3.81694C12.1936 3.69973 12.2594 3.54076 12.2594 3.375V2.75H14.1344V5.25H1.6344V2.75H3.5094ZM14.1344 15.25H1.6344V6.5H14.1344V15.25ZM8.8219 9.3125C8.8219 9.49792 8.76692 9.67918 8.6639 9.83335C8.56089 9.98752 8.41447 10.1077 8.24316 10.1786C8.07186 10.2496 7.88336 10.2682 7.7015 10.232C7.51964 10.1958 7.3526 10.1065 7.22149 9.97541C7.09037 9.8443 7.00109 9.67725 6.96491 9.4954C6.92874 9.31354 6.94731 9.12504 7.01826 8.95373C7.08922 8.78243 7.20938 8.63601 7.36355 8.533C7.51772 8.42998 7.69898 8.375 7.8844 8.375C8.13304 8.375 8.3715 8.47377 8.54731 8.64959C8.72313 8.8254 8.8219 9.06386 8.8219 9.3125ZM12.2594 9.3125C12.2594 9.49792 12.2044 9.67918 12.1014 9.83335C11.9984 9.98752 11.852 10.1077 11.6807 10.1786C11.5094 10.2496 11.3209 10.2682 11.139 10.232C10.9571 10.1958 10.7901 10.1065 10.659 9.97541C10.5279 9.8443 10.4386 9.67725 10.4024 9.4954C10.3662 9.31354 10.3848 9.12504 10.4558 8.95373C10.5267 8.78243 10.6469 8.63601 10.8011 8.533C10.9552 8.42998 11.1365 8.375 11.3219 8.375C11.5705 8.375 11.809 8.47377 11.9848 8.64959C12.1606 8.8254 12.2594 9.06386 12.2594 9.3125ZM5.3844 12.4375C5.3844 12.6229 5.32942 12.8042 5.2264 12.9583C5.12339 13.1125 4.97697 13.2327 4.80567 13.3036C4.63436 13.3746 4.44586 13.3932 4.264 13.357C4.08214 13.3208 3.9151 13.2315 3.78399 13.1004C3.65287 12.9693 3.56359 12.8023 3.52741 12.6204C3.49124 12.4385 3.50981 12.25 3.58076 12.0787C3.65172 11.9074 3.77188 11.761 3.92605 11.658C4.08022 11.555 4.26148 11.5 4.4469 11.5C4.69554 11.5 4.934 11.5988 5.10981 11.7746C5.28563 11.9504 5.3844 12.1889 5.3844 12.4375ZM8.8219 12.4375C8.8219 12.6229 8.76692 12.8042 8.6639 12.9583C8.56089 13.1125 8.41447 13.2327 8.24316 13.3036C8.07186 13.3746 7.88336 13.3932 7.7015 13.357C7.51964 13.3208 7.3526 13.2315 7.22149 13.1004C7.09037 12.9693 7.00109 12.8023 6.96491 12.6204C6.92874 12.4385 6.94731 12.25 7.01826 12.0787C7.08922 11.9074 7.20938 11.761 7.36355 11.658C7.51772 11.555 7.69898 11.5 7.8844 11.5C8.13304 11.5 8.3715 11.5988 8.54731 11.7746C8.72313 11.9504 8.8219 12.1889 8.8219 12.4375ZM12.2594 12.4375C12.2594 12.6229 12.2044 12.8042 12.1014 12.9583C11.9984 13.1125 11.852 13.2327 11.6807 13.3036C11.5094 13.3746 11.3209 13.3932 11.139 13.357C10.9571 13.3208 10.7901 13.2315 10.659 13.1004C10.5279 12.9693 10.4386 12.8023 10.4024 12.6204C10.3662 12.4385 10.3848 12.25 10.4558 12.0787C10.5267 11.9074 10.6469 11.761 10.8011 11.658C10.9552 11.555 11.1365 11.5 11.3219 11.5C11.5705 11.5 11.809 11.5988 11.9848 11.7746C12.1606 11.9504 12.2594 12.1889 12.2594 12.4375Z" fill="black"/>
</svg>
