<svg width="15" height="14" viewBox="0 0 15 14" fill="none" xmlns="http://www.w3.org/2000/svg">
<path d="M12.192 5.55953L7.81698 9.93453C7.77634 9.97521 7.72809 10.0075 7.67498 10.0295C7.62187 10.0515 7.56494 10.0628 7.50745 10.0628C7.44995 10.0628 7.39302 10.0515 7.33991 10.0295C7.2868 10.0075 7.23855 9.97521 7.19791 9.93453L2.82291 5.55953C2.74082 5.47744 2.6947 5.3661 2.6947 5.25C2.6947 5.1339 2.74082 5.02256 2.82291 4.94047C2.90501 4.85837 3.01635 4.81226 3.13245 4.81226C3.24854 4.81226 3.35988 4.85837 3.44198 4.94047L7.50745 9.00648L11.5729 4.94047C11.6136 4.89982 11.6618 4.86758 11.7149 4.84558C11.768 4.82358 11.825 4.81226 11.8824 4.81226C11.9399 4.81226 11.9969 4.82358 12.05 4.84558C12.1031 4.86758 12.1513 4.89982 12.192 4.94047C12.2326 4.98112 12.2649 5.02937 12.2869 5.08248C12.3089 5.13559 12.3202 5.19251 12.3202 5.25C12.3202 5.30748 12.3089 5.36441 12.2869 5.41752C12.2649 5.47063 12.2326 5.51888 12.192 5.55953Z" fill="#031B15"/>
</svg>
