<svg width="8" height="14" viewBox="0 0 8 14" fill="none" xmlns="http://www.w3.org/2000/svg">
<path d="M7.73647 9.64664C7.78296 9.69308 7.81984 9.74822 7.845 9.80892C7.87017 9.86962 7.88312 9.93468 7.88312 10.0004C7.88312 10.0661 7.87017 10.1312 7.845 10.1919C7.81984 10.2526 7.78296 10.3077 7.73647 10.3541L4.73647 13.3541C4.69004 13.4006 4.63489 13.4375 4.57419 13.4627C4.5135 13.4878 4.44843 13.5008 4.38272 13.5008C4.31702 13.5008 4.25195 13.4878 4.19125 13.4627C4.13056 13.4375 4.07541 13.4006 4.02897 13.3541L1.02897 10.3541C0.935154 10.2603 0.882446 10.1331 0.882446 10.0004C0.882446 9.86771 0.935154 9.74046 1.02897 9.64664C1.12279 9.55282 1.25004 9.50011 1.38272 9.50011C1.51541 9.50011 1.64265 9.55282 1.73647 9.64664L4.38272 12.2935L7.02897 9.64664C7.07541 9.60015 7.13056 9.56327 7.19125 9.53811C7.25195 9.51295 7.31702 9.5 7.38272 9.5C7.44843 9.5 7.5135 9.51295 7.57419 9.53811C7.63489 9.56327 7.69004 9.60015 7.73647 9.64664ZM1.73647 4.35414L4.38272 1.70727L7.02897 4.35414C7.12279 4.44796 7.25004 4.50067 7.38272 4.50067C7.51541 4.50067 7.64265 4.44796 7.73647 4.35414C7.83029 4.26032 7.883 4.13308 7.883 4.00039C7.883 3.86771 7.83029 3.74046 7.73647 3.64664L4.73647 0.646643C4.69004 0.600155 4.63489 0.563276 4.57419 0.538113C4.5135 0.512951 4.44843 0.5 4.38272 0.5C4.31702 0.5 4.25195 0.512951 4.19125 0.538113C4.13056 0.563276 4.07541 0.600155 4.02897 0.646643L1.02897 3.64664C0.935154 3.74046 0.882446 3.86771 0.882446 4.00039C0.882446 4.13308 0.935154 4.26032 1.02897 4.35414C1.12279 4.44796 1.25004 4.50067 1.38272 4.50067C1.51541 4.50067 1.64265 4.44796 1.73647 4.35414Z" fill="#031B15"/>
</svg>
