<svg width="21" height="20" viewBox="0 0 21 20" fill="none" xmlns="http://www.w3.org/2000/svg">
<path d="M11.445 14.0625C11.445 14.2479 11.39 14.4292 11.287 14.5833C11.1839 14.7375 11.0375 14.8577 10.8662 14.9286C10.6949 14.9996 10.5064 15.0182 10.3246 14.982C10.1427 14.9458 9.97565 14.8565 9.84454 14.7254C9.71343 14.5943 9.62414 14.4273 9.58796 14.2454C9.55179 14.0635 9.57036 13.875 9.64131 13.7037C9.71227 13.5324 9.83243 13.386 9.9866 13.283C10.1408 13.18 10.322 13.125 10.5075 13.125C10.7561 13.125 10.9945 13.2238 11.1704 13.3996C11.3462 13.5754 11.445 13.8139 11.445 14.0625ZM10.5075 5.625C8.78401 5.625 7.38245 6.88672 7.38245 8.4375V8.75C7.38245 8.91576 7.4483 9.07473 7.56551 9.19194C7.68272 9.30915 7.84169 9.375 8.00745 9.375C8.17321 9.375 8.33218 9.30915 8.44939 9.19194C8.5666 9.07473 8.63245 8.91576 8.63245 8.75V8.4375C8.63245 7.57812 9.47386 6.875 10.5075 6.875C11.541 6.875 12.3825 7.57812 12.3825 8.4375C12.3825 9.29688 11.541 10 10.5075 10C10.3417 10 10.1827 10.0658 10.0655 10.1831C9.9483 10.3003 9.88245 10.4592 9.88245 10.625V11.25C9.88245 11.4158 9.9483 11.5747 10.0655 11.6919C10.1827 11.8092 10.3417 11.875 10.5075 11.875C10.6732 11.875 10.8322 11.8092 10.9494 11.6919C11.0666 11.5747 11.1325 11.4158 11.1325 11.25V11.1938C12.5575 10.932 13.6325 9.79531 13.6325 8.4375C13.6325 6.88672 12.2309 5.625 10.5075 5.625ZM18.6325 10C18.6325 11.607 18.1559 13.1779 17.2631 14.514C16.3704 15.8502 15.1014 16.8916 13.6168 17.5065C12.1321 18.1215 10.4984 18.2824 8.92234 17.9689C7.34625 17.6554 5.89851 16.8815 4.76221 15.7452C3.62591 14.6089 2.85207 13.1612 2.53857 11.5851C2.22506 10.009 2.38597 8.37535 3.00093 6.8907C3.61589 5.40605 4.65729 4.1371 5.99344 3.24431C7.32959 2.35152 8.90048 1.875 10.5075 1.875C12.6616 1.87727 14.7269 2.73403 16.2502 4.25727C17.7734 5.78051 18.6302 7.84581 18.6325 10ZM17.3825 10C17.3825 8.64025 16.9792 7.31104 16.2238 6.18045C15.4684 5.04987 14.3946 4.16868 13.1384 3.64833C11.8822 3.12798 10.4998 2.99183 9.1662 3.2571C7.83258 3.52237 6.60758 4.17716 5.64609 5.13864C4.6846 6.10013 4.02982 7.32513 3.76455 8.65875C3.49928 9.99237 3.63543 11.3747 4.15578 12.6309C4.67613 13.8872 5.55732 14.9609 6.6879 15.7164C7.81849 16.4718 9.1477 16.875 10.5075 16.875C12.3302 16.8729 14.0777 16.1479 15.3665 14.8591C16.6554 13.5702 17.3804 11.8227 17.3825 10Z" fill="#7E8986"/>
</svg>
