<svg width="21" height="20" viewBox="0 0 21 20" fill="none" xmlns="http://www.w3.org/2000/svg">
<path d="M19.2574 16.25H18.0074V10.625L18.1903 10.8078C18.3077 10.9251 18.467 10.9909 18.633 10.9907C18.799 10.9906 18.9581 10.9245 19.0754 10.807C19.1927 10.6895 19.2585 10.5303 19.2583 10.3643C19.2582 10.1983 19.1921 10.0392 19.0746 9.92188L11.391 2.24062C11.1566 2.00638 10.8388 1.8748 10.5074 1.8748C10.1761 1.8748 9.85825 2.00638 9.62385 2.24062L1.94026 9.92188C1.82309 10.0392 1.7573 10.1982 1.75738 10.3639C1.75745 10.5297 1.82337 10.6887 1.94065 10.8059C2.05792 10.923 2.21694 10.9888 2.38272 10.9887C2.5485 10.9887 2.70746 10.9227 2.82463 10.8055L3.00745 10.625V16.25H1.75745C1.59169 16.25 1.43271 16.3158 1.3155 16.4331C1.19829 16.5503 1.13245 16.7092 1.13245 16.875C1.13245 17.0408 1.19829 17.1997 1.3155 17.3169C1.43271 17.4342 1.59169 17.5 1.75745 17.5H19.2574C19.4232 17.5 19.5822 17.4342 19.6994 17.3169C19.8166 17.1997 19.8824 17.0408 19.8824 16.875C19.8824 16.7092 19.8166 16.5503 19.6994 16.4331C19.5822 16.3158 19.4232 16.25 19.2574 16.25ZM4.25745 9.375L10.5074 3.125L16.7574 9.375V16.25H13.0074V11.875C13.0074 11.7092 12.9416 11.5503 12.8244 11.4331C12.7072 11.3158 12.5482 11.25 12.3824 11.25H8.63245C8.46669 11.25 8.30771 11.3158 8.1905 11.4331C8.07329 11.5503 8.00745 11.7092 8.00745 11.875V16.25H4.25745V9.375ZM11.7574 16.25H9.25745V12.5H11.7574V16.25Z" fill="#7E8986"/>
</svg>
