<svg width="19" height="18" viewBox="0 0 19 18" fill="none" xmlns="http://www.w3.org/2000/svg">
<path d="M9.50744 5.25003C8.76576 5.25003 8.04074 5.46996 7.42405 5.88202C6.80737 6.29407 6.32672 6.87974 6.04289 7.56496C5.75907 8.25019 5.6848 9.00419 5.8295 9.73162C5.97419 10.459 6.33135 11.1272 6.85579 11.6517C7.38024 12.1761 8.04842 12.5333 8.77585 12.678C9.50328 12.8227 10.2573 12.7484 10.9425 12.4646C11.6277 12.1807 12.2134 11.7001 12.6255 11.0834C13.0375 10.4667 13.2574 9.74171 13.2574 9.00003C13.2564 8.00578 12.861 7.05256 12.158 6.34952C11.4549 5.64648 10.5017 5.25106 9.50744 5.25003ZM9.50744 11.5C9.01299 11.5 8.52964 11.3534 8.11852 11.0787C7.70739 10.804 7.38696 10.4135 7.19774 9.95673C7.00852 9.49992 6.95902 8.99725 7.05548 8.5123C7.15194 8.02735 7.39004 7.58189 7.73968 7.23226C8.08931 6.88263 8.53476 6.64453 9.01972 6.54806C9.50467 6.4516 10.0073 6.50111 10.4642 6.69033C10.921 6.87955 11.3114 7.19998 11.5861 7.6111C11.8608 8.02222 12.0074 8.50557 12.0074 9.00003C12.0074 9.66307 11.7441 10.299 11.2752 10.7678C10.8064 11.2366 10.1705 11.5 9.50744 11.5ZM18.0965 7.37581C18.0791 7.2878 18.0429 7.20456 17.9905 7.13177C17.9381 7.05897 17.8706 6.99832 17.7926 6.95393L15.4621 5.62581L15.4528 2.99924C15.4525 2.90879 15.4326 2.81947 15.3944 2.73746C15.3562 2.65545 15.3007 2.5827 15.2317 2.52424C14.3863 1.80916 13.4128 1.26117 12.3629 0.909401C12.2802 0.881416 12.1926 0.87106 12.1057 0.878999C12.0188 0.886938 11.9345 0.912996 11.8582 0.955495L9.50744 2.26956L7.15432 0.953151C7.07803 0.910413 6.99362 0.884158 6.90656 0.876083C6.81949 0.868009 6.73169 0.878295 6.64885 0.906276C5.59975 1.26062 4.62736 1.8107 3.78322 2.52737C3.71429 2.58574 3.65883 2.65836 3.62066 2.74023C3.5825 2.8221 3.56253 2.91126 3.56213 3.00159L3.55041 5.63049L1.21994 6.95862C1.14197 7.00301 1.07448 7.06366 1.02204 7.13646C0.969598 7.20925 0.933445 7.29248 0.916036 7.38049C0.702752 8.45228 0.702752 9.55559 0.916036 10.6274C0.933445 10.7154 0.969598 10.7986 1.02204 10.8714C1.07448 10.9442 1.14197 11.0049 1.21994 11.0492L3.55041 12.3774L3.55979 15.0039C3.56007 15.0944 3.57998 15.1837 3.61816 15.2657C3.65633 15.3477 3.71185 15.4205 3.78088 15.4789C4.62625 16.194 5.59975 16.742 6.64963 17.0938C6.73231 17.1218 6.81993 17.1321 6.90686 17.1242C6.99378 17.1162 7.07808 17.0902 7.15432 17.0477L9.50744 15.7305L11.8606 17.0469C11.9537 17.0988 12.0587 17.1257 12.1653 17.125C12.2335 17.125 12.3013 17.1139 12.366 17.0922C13.415 16.7383 14.3874 16.1888 15.2317 15.4727C15.3006 15.4143 15.3561 15.3417 15.3942 15.2598C15.4324 15.178 15.4524 15.0888 15.4528 14.9985L15.4645 12.3696L17.7949 11.0414C17.8729 10.997 17.9404 10.9364 17.9928 10.8636C18.0453 10.7908 18.0814 10.7076 18.0988 10.6196C18.3109 9.54863 18.3101 8.44643 18.0965 7.37581ZM16.9246 10.1032L14.6926 11.3727C14.5948 11.4283 14.5138 11.5093 14.4582 11.6071C14.4129 11.6852 14.3653 11.768 14.3168 11.8461C14.2548 11.9446 14.2218 12.0586 14.2215 12.175L14.2098 14.6946C13.6098 15.1657 12.9415 15.5424 12.2278 15.8117L9.97619 14.5571C9.88272 14.5053 9.77755 14.4784 9.67072 14.4789H9.65588C9.56135 14.4789 9.46604 14.4789 9.3715 14.4789C9.2597 14.4761 9.14916 14.5031 9.05119 14.5571L6.79807 15.8149C6.08284 15.5476 5.41262 15.1727 4.81057 14.7032L4.80197 12.1875C4.80159 12.0709 4.76857 11.9567 4.70666 11.8578C4.65822 11.7797 4.61057 11.7016 4.56604 11.6188C4.51082 11.5195 4.42985 11.4369 4.33166 11.3797L2.09729 10.1071C1.98166 9.37566 1.98166 8.63064 2.09729 7.89925L4.32541 6.62737C4.42321 6.57176 4.50418 6.49079 4.55979 6.39299C4.6051 6.31487 4.65276 6.23206 4.70119 6.15393C4.7632 6.05541 4.79622 5.94143 4.7965 5.82503L4.80822 3.30549C5.40817 2.83436 6.07655 2.45762 6.79025 2.18831L9.03869 3.44299C9.13655 3.49724 9.24717 3.52422 9.359 3.52112C9.45354 3.52112 9.54885 3.52112 9.64338 3.52112C9.75519 3.52391 9.86573 3.49695 9.96369 3.44299L12.2168 2.18518C12.932 2.45243 13.6023 2.82732 14.2043 3.2969L14.2129 5.81253C14.2133 5.92916 14.2463 6.04336 14.3082 6.14221C14.3567 6.22034 14.4043 6.29846 14.4488 6.38128C14.5041 6.48058 14.585 6.56317 14.6832 6.62034L16.9176 7.89299C17.0348 8.62495 17.0361 9.37078 16.9215 10.1032H16.9246Z" fill="#7E8986"/>
</svg>

